<svg xmlns="http://www.w3.org/2000/svg" xmlns:xlink="http://www.w3.org/1999/xlink" viewBox="0 0 304.78 220.13"><defs><style>.a{fill:none;}.b{opacity:0.36;}.c{clip-path:url(#a);}.d{clip-path:url(#b);}.e{fill:#58276d;}.f{fill:#88236b;}.g{fill:#b51f66;}.h{fill:#49327c;}.i{fill:#635294;}.j{fill:#2d2c6d;}.k{fill:#9372b1;}.l{fill:#e04a7d;}.m{fill:#48bcd3;}.n{fill:#3192ba;}.o{fill:#b6d8f1;}.p{fill:#7f2958;}.q{fill:#662a54;}.r{fill:#6f61a9;}.s{fill:#bfaad2;}.t{fill:#d15b87;}</style><clipPath id="a"><rect class="a" x="-1194.77" y="-154.53" width="894.94" height="596.63"/></clipPath><clipPath id="b"><circle class="a" cx="152.16" cy="124.1" r="96.03"/></clipPath></defs><g class="d"><circle class="e" cx="152.16" cy="124.1" r="96.03"/><circle class="f" cx="124.08" cy="96.03" r="96.03"/><circle class="g" cx="129.71" cy="99.34" r="56.57"/></g><path class="h" d="M304.49,115a60.94,60.94,0,0,1-97.78,54.27,27.64,27.64,0,0,0-20-5.7l-60.68,6.79a27.69,27.69,0,0,0-18.21,10A60.94,60.94,0,1,1,54.17,80.84L237.06,60.35A60.94,60.94,0,0,1,304.49,115Z"/><path class="i" d="M298.31,114.81c3.07,27.44-17.33,52.24-49,55.79-15.25,1.71-28.27-2-38.92-9.37a28.1,28.1,0,0,0-19.05-4.73l-71.5,8a27.94,27.94,0,0,0-17.3,8.57c-9,9.65-21.57,16.37-36.94,18.09C35.86,194.5,16.77,176.77,12,151.88c-.32-1.61-.56-3.25-.75-4.92C8.2,119.52,21.12,91.17,59.76,86.84L232.93,67.45c19.14-2.15,33.73,1.75,44.24,9.19C289.87,85.63,296.63,99.81,298.31,114.81Z"/><path class="j" d="M232.93,67.45c19.14-2.15,33.73,1.75,44.24,9.19,12.7,9,19.46,23.17,21.14,38.17,3.07,27.44-17.33,52.24-49,55.79-15.25,1.71-28.27-2-38.92-9.37a28.1,28.1,0,0,0-19.05-4.73l-71.5,8a27.94,27.94,0,0,0-17.3,8.57c-9,9.65-21.57,16.37-36.94,18.09C35.86,194.5,16.77,176.77,12,151.88c-.32-1.61-.56-3.25-.75-4.92C8.2,119.52,21.12,91.17,59.76,86.84L232.93,67.45ZM232.66,65,59.49,84.4C41,86.47,26.61,94.23,17.86,106.83c-7.52,10.84-10.73,25.19-9,40.4.2,1.75.46,3.47.78,5.11,2.54,13.34,8.88,24.3,18.32,31.7C38,192,51.14,195.26,65.88,193.61c15.23-1.71,28.53-8.22,38.47-18.85A25.42,25.42,0,0,1,120.13,167l71.49-8A25.65,25.65,0,0,1,209,163.25c11.9,8.18,25.55,11.47,40.58,9.79,15.76-1.77,29.65-8.79,39.11-19.77a50.23,50.23,0,0,0,12.05-38.73c-1.9-17-9.77-31.13-22.16-39.9-11.95-8.47-27.4-11.71-45.93-9.63Z"/><path class="k" d="M277.17,76.64C222.88,144.24,90.26,153.05,12,151.88c-.32-1.61-.56-3.25-.75-4.92C8.2,119.52,21.12,91.17,59.76,86.84L232.93,67.45C252.07,65.3,266.66,69.2,277.17,76.64Z"/><path class="l" d="M104.69,133.25a43.63,43.63,0,1,1-9.46-22.63A43.65,43.65,0,0,1,104.69,133.25Z"/><path class="j" d="M66.35,183.09a45.27,45.27,0,1,1,39.94-50A45.14,45.14,0,0,1,66.35,183.09ZM56.63,96.33A42,42,0,1,0,94,111.64,42.09,42.09,0,0,0,56.63,96.33Z"/><path class="l" d="M287.47,112.78a44.33,44.33,0,1,1-9.61-23A44.36,44.36,0,0,1,287.47,112.78Z"/><path class="j" d="M248.51,163.42A46,46,0,1,1,289.1,112.6,45.86,45.86,0,0,1,248.51,163.42Zm-9.87-88.15a42.7,42.7,0,1,0,37.94,15.55A42.75,42.75,0,0,0,238.64,75.27Z"/><circle class="m" cx="242.39" cy="97.71" r="11.82" transform="translate(116.3 326.63) rotate(-83.11)"/><path class="n" d="M243.87,110.89a13.26,13.26,0,1,1,11.7-14.65A13.27,13.27,0,0,1,243.87,110.89ZM241.24,87.4a10.37,10.37,0,1,0,11.46,9.16A10.39,10.39,0,0,0,241.24,87.4Z"/><circle class="m" cx="247.19" cy="140.52" r="11.82" transform="translate(78.02 369.06) rotate(-83.11)"/><path class="n" d="M248.66,153.7A13.26,13.26,0,1,1,260.36,139,13.28,13.28,0,0,1,248.66,153.7ZM246,130.21a10.37,10.37,0,1,0,11.47,9.16A10.38,10.38,0,0,0,246,130.21Z"/><circle class="m" cx="220.59" cy="121.24" r="11.82" transform="translate(88.61 335.59) rotate(-87.17)"/><path class="n" d="M222.07,134.42a13.26,13.26,0,1,1,11.7-14.65A13.27,13.27,0,0,1,222.07,134.42Zm-2.63-23.49a10.37,10.37,0,1,0,11.46,9.16A10.39,10.39,0,0,0,219.44,110.93Z"/><circle class="m" cx="267.14" cy="116.03" r="11.82" transform="translate(138.07 377.12) rotate(-87.17)"/><path class="n" d="M268.61,129.21a13.26,13.26,0,1,1,11.7-14.65A13.28,13.28,0,0,1,268.61,129.21ZM266,105.72a10.37,10.37,0,1,0,11.47,9.16A10.39,10.39,0,0,0,266,105.72Z"/><circle class="o" cx="239.77" cy="94.6" r="5.19" transform="translate(-9.04 27.27) rotate(-6.39)"/><circle class="o" cx="244.66" cy="138.25" r="5.19" transform="translate(-16.05 243.16) rotate(-51.39)"/><circle class="o" cx="217.1" cy="118.94" r="5.19" transform="translate(-11.32 214.36) rotate(-51.39)"/><circle class="o" cx="264.18" cy="113.67" r="5.19" transform="translate(10.5 249.17) rotate(-51.39)"/><rect class="p" x="127.93" y="150.18" width="20.95" height="7.58" rx="1.11" transform="translate(-16.27 16.36) rotate(-6.39)"/><path class="q" d="M145.72,157.88l-13.59,1.53a4.56,4.56,0,0,1-5-4l0-.31a4.56,4.56,0,0,1,4-5l13.59-1.52a4.56,4.56,0,0,1,5,4l0,.3A4.55,4.55,0,0,1,145.72,157.88Zm-14.43-6a2.72,2.72,0,0,0-2.4,3l0,.3a2.72,2.72,0,0,0,3,2.4l13.59-1.52a2.73,2.73,0,0,0,2.4-3l0-.3a2.72,2.72,0,0,0-3-2.4Z"/><rect class="p" x="160.18" y="146.57" width="20.95" height="7.58" rx="1.11" transform="translate(-15.67 19.93) rotate(-6.39)"/><path class="q" d="M178,154.27l-13.59,1.53a4.57,4.57,0,0,1-5-4l0-.3a4.55,4.55,0,0,1,4-5l13.59-1.53a4.57,4.57,0,0,1,5,4l0,.3A4.55,4.55,0,0,1,178,154.27Zm-14.43-6a2.71,2.71,0,0,0-2.4,3l0,.3a2.73,2.73,0,0,0,3,2.4l13.59-1.53a2.71,2.71,0,0,0,2.4-3l0-.3a2.73,2.73,0,0,0-3-2.4Z"/><circle class="r" cx="151.13" cy="119.82" r="15.69"/><path class="j" d="M153.08,137.24a17.52,17.52,0,1,1,15.46-19.37A17.54,17.54,0,0,1,153.08,137.24Zm-3.5-31.18a13.85,13.85,0,1,0,15.3,12.22A13.86,13.86,0,0,0,149.58,106.06Z"/><circle class="p" cx="107.05" cy="92.53" r="5.79" transform="translate(2.34 187.71) rotate(-83.11)"/><path class="q" d="M107.8,99.21a6.72,6.72,0,1,1,5.93-7.42A6.72,6.72,0,0,1,107.8,99.21Zm-1.29-11.52A4.88,4.88,0,1,0,111.9,92,4.88,4.88,0,0,0,106.51,87.69Z"/><circle class="p" cx="125.47" cy="90.47" r="5.79" transform="translate(-28.1 71.87) rotate(-28.89)"/><path class="q" d="M126.21,97.14a6.71,6.71,0,1,1,5.93-7.41A6.72,6.72,0,0,1,126.21,97.14Zm-1.29-11.51a4.88,4.88,0,1,0,5.39,4.3A4.87,4.87,0,0,0,124.92,85.63Z"/><circle class="p" cx="168.91" cy="85.61" r="5.79" transform="translate(63.65 243.02) rotate(-83.11)"/><path class="q" d="M169.65,92.28a6.71,6.71,0,1,1,5.93-7.42A6.72,6.72,0,0,1,169.65,92.28Zm-1.29-11.51a4.87,4.87,0,1,0,5.39,4.3A4.88,4.88,0,0,0,168.36,80.77Z"/><circle class="p" cx="187.32" cy="83.55" r="5.79" transform="translate(81.9 259.48) rotate(-83.11)"/><path class="q" d="M188.07,90.22A6.72,6.72,0,1,1,194,82.8,6.72,6.72,0,0,1,188.07,90.22ZM186.78,78.7a4.88,4.88,0,1,0,5.38,4.3A4.88,4.88,0,0,0,186.78,78.7Z"/><circle class="s" cx="146.69" cy="116.2" r="6.41"/><path class="p" d="M92,128.52l1.36,12.15a4.14,4.14,0,0,1-3.67,4.59l-12.91,1.45a4.15,4.15,0,0,0-3.67,4.59l1.45,12.92a4.16,4.16,0,0,1-3.67,4.59l-12.15,1.36a4.16,4.16,0,0,1-4.6-3.67l-1.44-12.91a4.16,4.16,0,0,0-4.6-3.67L35.2,151.36a4.16,4.16,0,0,1-4.6-3.66l-1.36-12.15a4.17,4.17,0,0,1,3.67-4.6l12.92-1.44a4.17,4.17,0,0,0,3.67-4.6L48.05,112a4.16,4.16,0,0,1,3.67-4.6L63.87,106a4.16,4.16,0,0,1,4.59,3.67l1.45,12.92a4.16,4.16,0,0,0,4.59,3.67l12.92-1.45A4.15,4.15,0,0,1,92,128.52Z"/><path class="q" d="M71.06,170.25l-12.15,1.36a5.61,5.61,0,0,1-6.19-5l-1.45-12.91a2.71,2.71,0,0,0-3-2.4L35.36,152.8a5.61,5.61,0,0,1-6.19-4.94l-1.36-12.15a5.61,5.61,0,0,1,4.94-6.19l12.92-1.45a2.7,2.7,0,0,0,2.39-3l-1.44-12.91A5.6,5.6,0,0,1,51.56,106l12.15-1.36a5.6,5.6,0,0,1,6.19,4.94l1.44,12.92a2.72,2.72,0,0,0,3,2.39l12.92-1.44a5.6,5.6,0,0,1,6.19,4.94l1.36,12.15a5.61,5.61,0,0,1-5,6.18L77,148.14a2.72,2.72,0,0,0-2.4,3L76,164.06A5.61,5.61,0,0,1,71.06,170.25Zm-38-37.86a2.7,2.7,0,0,0-2.39,3L32,147.53a2.71,2.71,0,0,0,3,2.4L48,148.48a5.61,5.61,0,0,1,6.19,5l1.45,12.91a2.71,2.71,0,0,0,3,2.4l12.15-1.36a2.72,2.72,0,0,0,2.39-3l-1.44-12.92a5.6,5.6,0,0,1,4.94-6.19l12.91-1.44a2.72,2.72,0,0,0,2.4-3l-1.36-12.15a2.72,2.72,0,0,0-3-2.4l-12.92,1.45a5.61,5.61,0,0,1-6.19-4.94L67,109.87a2.72,2.72,0,0,0-3-2.4l-12.15,1.36a2.73,2.73,0,0,0-2.4,3l1.45,12.91A5.61,5.61,0,0,1,46,130.94Z"/><path class="t" d="M55.41,126.25A2.15,2.15,0,0,1,53,124.36l-1.36-12.11a2.15,2.15,0,0,1,4.27-.48l1.35,12.11A2.13,2.13,0,0,1,55.41,126.25Z"/><path class="t" d="M59.86,166a2.15,2.15,0,0,1-2.37-1.89L56.13,152a2.15,2.15,0,0,1,4.27-.47l1.35,12.1A2.13,2.13,0,0,1,59.86,166Z"/><path class="t" d="M45.72,136.11,33.8,137.45a2.15,2.15,0,0,1-.48-4.27l11.92-1.33a2.14,2.14,0,1,1,.48,4.26Z"/><path class="t" d="M87.27,131.46,75.35,132.8a2.15,2.15,0,1,1-.48-4.27l11.92-1.34a2.15,2.15,0,0,1,.48,4.27Z"/></svg>