<svg xmlns="http://www.w3.org/2000/svg" xmlns:xlink="http://www.w3.org/1999/xlink" viewBox="0 0 20 18.59"><defs><style>.a{fill:url(#a);}</style><linearGradient id="a" x1="17.19" y1="0.8" x2="0.3" y2="23.47" gradientUnits="userSpaceOnUse"><stop offset="0" stop-color="#932683"/><stop offset="0.16" stop-color="#8e2580"/><stop offset="0.35" stop-color="#812377"/><stop offset="0.54" stop-color="#6a1e69"/><stop offset="0.75" stop-color="#4a1855"/><stop offset="0.96" stop-color="#21113b"/><stop offset="1" stop-color="#180f35"/></linearGradient></defs><path class="a" d="M17,6.59,13.47.5A1,1,0,0,0,12.12.13h0a1,1,0,0,0-.37,1.37l2.94,5.09H5.31l3-5.09A1,1,0,0,0,7.9.14h0A1,1,0,0,0,6.52.5L3,6.59H1a1,1,0,0,0-1,1H0a1,1,0,0,0,1,1h.33l1.39,8.33a2,2,0,0,0,2,1.67H15.31a2,2,0,0,0,2-1.67l1.39-8.33H19a1,1,0,0,0,1-1h0a1,1,0,0,0-1-1Zm-2.52,10H5.54a1,1,0,0,1-1-.84L3.36,8.59H16.82l-1.36,7.18A1,1,0,0,1,14.48,16.59Z"/></svg>