<svg xmlns="http://www.w3.org/2000/svg" viewBox="0 0 24 24"><defs><style>.a{fill:#fff;}</style></defs><path class="a" d="M23.9,20.23,23.57,19a8.28,8.28,0,0,1-.07-4.25,11.6,11.6,0,0,0,.12-5.51A11.86,11.86,0,0,0,12,0,11.8,11.8,0,0,0,.11,13.35,11.9,11.9,0,0,0,12,23.42c1.76,0,2.12-.31,3.67-.31a19.9,19.9,0,0,1,4.53.79A3,3,0,0,0,23.9,20.23Zm-3,1.37a24.62,24.62,0,0,0-5.31-.89c-1.77,0-2.17.31-3.67.31a9.5,9.5,0,0,1-9.46-8A9.4,9.4,0,0,1,12,2.4a9.44,9.44,0,0,1,9.33,7.3,9.09,9.09,0,0,1-.1,4.37,10.84,10.84,0,0,0,.06,5.48C21.5,20.52,22,21.6,20.93,21.6ZM8.25,11.93a2.4,2.4,0,1,1-2.4-2.4A2.41,2.41,0,0,1,8.25,11.93Zm6,0a2.4,2.4,0,1,1-2.4-2.4A2.41,2.41,0,0,1,14.25,11.93Zm6,0a2.4,2.4,0,1,1-2.4-2.4A2.41,2.41,0,0,1,20.25,11.93Z"/></svg>