<svg xmlns="http://www.w3.org/2000/svg" xmlns:xlink="http://www.w3.org/1999/xlink" viewBox="0 0 26.16 26.15"><defs><style>.a{fill:url(#a);}.b{fill:url(#b);}</style><linearGradient id="a" x1="22.18" y1="-4.51" x2="1.74" y2="25.71" gradientUnits="userSpaceOnUse"><stop offset="0" stop-color="#932683"/><stop offset="0.16" stop-color="#8e2580"/><stop offset="0.35" stop-color="#812377"/><stop offset="0.54" stop-color="#6a1e69"/><stop offset="0.75" stop-color="#4a1855"/><stop offset="0.96" stop-color="#21113b"/><stop offset="1" stop-color="#180f35"/></linearGradient><linearGradient id="b" x1="24.1" y1="-3.21" x2="3.66" y2="27.01" xlink:href="#a"/></defs><path class="a" d="M16.09,8.89a3,3,0,1,1-3-3A3,3,0,0,1,16.09,8.89Z"/><path class="b" d="M13.08,0A13.08,13.08,0,1,0,26.16,13.08,13.08,13.08,0,0,0,13.08,0Zm6,19.28a5.68,5.68,0,0,0-5.94-5.94,5.69,5.69,0,0,0-5.94,5.94H5.7a7.13,7.13,0,0,1,4.63-6.92,4.46,4.46,0,1,1,5.58,0,7.14,7.14,0,0,1,4.64,6.92Z"/></svg>