<svg xmlns="http://www.w3.org/2000/svg" xmlns:xlink="http://www.w3.org/1999/xlink" viewBox="0 0 89.81 80.63"><defs><style>.a{fill:url(#a);}.b{fill:#fff;}</style><linearGradient id="a" x1="11.81" y1="101.06" x2="63.29" y2="6.56" gradientUnits="userSpaceOnUse"><stop offset="0" stop-color="#180f35"/><stop offset="0.23" stop-color="#2f1344"/><stop offset="0.7" stop-color="#6b1e69"/><stop offset="1" stop-color="#932683"/></linearGradient></defs><rect class="a" width="89.81" height="80.63"/><path class="b" d="M64.87,54.17,62,36.21a3.88,3.88,0,0,0-4-3.08H54.91v-1.8c0-5.38-4.49-9-10-9s-10,4-10,9v1.8H32.37c-2,0-4.29,1.31-4.57,3.08l-2.86,18a3.75,3.75,0,0,0,4,4.1h32A3.75,3.75,0,0,0,64.87,54.17Zm-26-22.84c0-3,2.7-5.38,6-5.38s6,1.79,6,5.38v1.8h-12ZM58.6,54.68H31.21a1.87,1.87,0,0,1-2-2l2.29-14.37a1.94,1.94,0,0,1,2-1.54h1.4v3.59a2,2,0,0,0,4,0V36.72h12v3.59a2,2,0,0,0,4,0V36.72h1.41a2,2,0,0,1,2,1.54l2.28,14.37A1.87,1.87,0,0,1,58.6,54.68Z"/></svg>