<svg xmlns="http://www.w3.org/2000/svg" xmlns:xlink="http://www.w3.org/1999/xlink" viewBox="0 0 67.91 21.21"><defs><style>.a{fill:none;}.b{clip-path:url(#a);}.c{opacity:0.36;}.d{clip-path:url(#b);}.e{clip-path:url(#c);}.f{opacity:0.5;}.g{fill:#c91c72;}.h{clip-path:url(#d);}.i{clip-path:url(#e);}.j{fill:url(#f);}.k{fill:url(#g);}.l{fill:url(#h);}.m{fill:url(#i);}.n{fill:url(#j);}.o{fill:url(#k);}</style><clipPath id="a"><rect class="a" x="785.8" y="-539.42" width="563" height="480" transform="translate(767.88 -1366.72) rotate(90)"/></clipPath><clipPath id="b"><rect class="a" x="640.64" y="-580.92" width="853.33" height="562.6"/></clipPath><clipPath id="c"><polygon class="a" points="1493.97 -580.92 640.64 -580.92 640.64 -18.32 1493.91 -18.32 1493.97 -580.92"/></clipPath><clipPath id="d"><rect class="a" x="-711.7" y="-580.92" width="480" height="562.66"/></clipPath><clipPath id="e"><polygon class="a" points="-231.7 -580.92 -711.7 -580.92 -711.7 -18.26 -231.73 -18.26 -231.7 -580.92"/></clipPath><linearGradient id="f" x1="30.04" y1="44.11" x2="34.28" y2="8.04" gradientUnits="userSpaceOnUse"><stop offset="0" stop-color="#180f35"/><stop offset="0.18" stop-color="#1c1038"/><stop offset="0.36" stop-color="#291240"/><stop offset="0.54" stop-color="#3d164d"/><stop offset="0.73" stop-color="#5a1b5f"/><stop offset="0.91" stop-color="#7f2277"/><stop offset="1" stop-color="#932683"/></linearGradient><linearGradient id="g" x1="27.01" y1="43.76" x2="31.25" y2="7.69" xlink:href="#f"/><linearGradient id="h" x1="25.57" y1="43.59" x2="29.81" y2="7.52" xlink:href="#f"/><linearGradient id="i" x1="38.36" y1="45.09" x2="42.61" y2="9.02" xlink:href="#f"/><linearGradient id="j" x1="47.26" y1="46.14" x2="51.5" y2="10.07" xlink:href="#f"/><linearGradient id="k" x1="57.69" y1="47.37" x2="61.93" y2="11.29" xlink:href="#f"/></defs><g class="b"><g class="c"><g class="d"><g class="e"><g class="f"><path class="g" d="M2068.91,60.83H65.69L642.1-124.09h850.4l.2.06ZM76.29,59.19h1982L1492.07-122.46H642.53Z"/></g></g></g></g></g><g class="c"><g class="h"><g class="i"><g class="f"><path class="g" d="M91.71,60.9H-1035.1L-710.87-124h478.35l.11.07Zm-1120.85-1.63H85.74L-232.76-122.4H-710.63Z"/></g></g></g></g><polygon class="j" points="35.36 4.93 34.63 9.95 33.33 10.05 34.08 5.04 35.36 4.93"/><path class="k" d="M26.94,5.59,26.8,6.84,28,6.74l.23-1.25Zm0,0L26.8,6.84,28,6.74l.23-1.25Zm0,0L26.8,6.84,28,6.74l.23-1.25Zm0,0L26.8,6.84,28,6.74l.23-1.25ZM4.86,7.36,4.72,8.61l1.22-.1.22-1.25ZM26.94,5.59,26.8,6.84,28,6.74l.23-1.25Zm0,0L26.8,6.84,28,6.74l.23-1.25ZM4.86,7.36,4.72,8.61l1.22-.1.22-1.25Zm0,0L4.72,8.61l1.22-.1.22-1.25ZM26.94,5.59,26.8,6.84,28,6.74l.23-1.25ZM41.37,4.46,41,7l1.2-.09.38-2.55Zm0,0L41,7l1.2-.09.38-2.55ZM26.94,5.59,26.8,6.84,28,6.74l.23-1.25ZM4.86,7.36,4.72,8.61l1.22-.1.22-1.25Zm0,0L4.72,8.61l1.22-.1.22-1.25ZM26.94,5.59,26.8,6.84,28,6.74l.23-1.25ZM41.37,4.46,41,7l1.2-.09.38-2.55Zm0,0L41,7l1.2-.09.38-2.55ZM26.94,5.59,26.8,6.84,28,6.74l.23-1.25ZM4.86,7.36,4.72,8.61l1.22-.1.22-1.25Zm0,0L4.72,8.61l1.22-.1.22-1.25ZM26.94,5.59,26.8,6.84,28,6.74l.23-1.25ZM41.37,4.46,41,7l1.2-.09.38-2.55Zm10.55-.85-.36,2.55,1.3-.1.28-2.55Zm0,0-.36,2.55,1.3-.1.28-2.55Zm-10.55.85L41,7l1.2-.09.38-2.55ZM26.94,5.59,26.8,6.84,28,6.74l.23-1.25ZM4.86,7.36,4.72,8.61l1.22-.1.22-1.25Zm0,0L4.72,8.61l1.22-.1.22-1.25ZM26.94,5.59,26.8,6.84,28,6.74l.23-1.25ZM41.37,4.46,41,7l1.2-.09.38-2.55Zm10.55-.85-.36,2.55,1.3-.1.28-2.55Zm0,0-.36,2.55,1.3-.1.28-2.55Zm-10.55.85L41,7l1.2-.09.38-2.55ZM26.94,5.59,26.8,6.84,28,6.74l.23-1.25ZM4.86,7.36,4.72,8.61l1.22-.1.22-1.25Zm0,0L4.72,8.61l1.22-.1.22-1.25ZM26.94,5.59,26.8,6.84,28,6.74l.23-1.25ZM41.37,4.46,41,7l1.2-.09.38-2.55Zm10.55-.85-.36,2.55,1.3-.1.28-2.55Zm0,0-.36,2.55,1.3-.1.28-2.55Zm-10.55.85L41,7l1.2-.09.38-2.55ZM26.94,5.59,26.8,6.84,28,6.74l.23-1.25ZM4.86,7.36,4.72,8.61l1.22-.1.22-1.25Zm0,0L4.72,8.61l1.22-.1.22-1.25ZM26.94,5.59,26.8,6.84,28,6.74l.23-1.25ZM41.37,4.46,41,7l1.2-.09.38-2.55Zm10.55-.85-.36,2.55,1.3-.1.28-2.55Zm0,0-.36,2.55,1.3-.1.28-2.55Zm-10.55.85L41,7l1.2-.09.38-2.55ZM26.94,5.59,26.8,6.84,28,6.74l.23-1.25ZM4.86,7.36,4.72,8.61l1.22-.1.22-1.25Zm0,0L4.72,8.61l1.22-.1.22-1.25ZM26.94,5.59,26.8,6.84,28,6.74l.23-1.25ZM41.37,4.46,41,7l1.2-.09.38-2.55Zm10.55-.85-.36,2.55,1.3-.1.28-2.55Zm0,0-.36,2.55,1.3-.1.28-2.55Zm-10.55.85L41,7l1.2-.09.38-2.55ZM26.94,5.59,26.8,6.84,28,6.74l.23-1.25ZM4.86,7.36,4.72,8.61l1.22-.1.22-1.25Zm0,0L4.72,8.61l1.22-.1.22-1.25ZM26.94,5.59,26.8,6.84,28,6.74l.23-1.25ZM41.37,4.46,41,7l1.2-.09.38-2.55Zm10.55-.85-.36,2.55,1.3-.1.28-2.55Zm0,0-.36,2.55,1.3-.1.28-2.55Zm-10.55.85L41,7l1.2-.09.38-2.55ZM26.94,5.59,26.8,6.84,28,6.74l.23-1.25ZM4.86,7.36,4.72,8.61l1.22-.1.22-1.25Zm0,0L4.72,8.61l1.22-.1.22-1.25ZM26.94,5.59,26.8,6.84,28,6.74l.23-1.25ZM41.37,4.46,41,7l1.2-.09.38-2.55Zm-25-.54a.06.06,0,0,0,.05,0v0Zm35.55-.31-.36,2.55,1.3-.1.28-2.55Zm4.95,10.52,0,0a.62.62,0,0,0-.29-.12.37.37,0,0,0-.28.12.46.46,0,0,0-.08.13l.13,0,.52-.05h.07A.07.07,0,0,0,56.87,14.13Zm-52-6.77L4.72,8.61l1.22-.1.22-1.25ZM26.94,5.59,26.8,6.84,28,6.74l.23-1.25ZM41.37,4.46,41,7l1.2-.09.38-2.55Zm10.55-.85-.36,2.55,1.3-.1.28-2.55Zm0,0-.36,2.55,1.3-.1.28-2.55Zm-10.55.85L41,7l1.2-.09.38-2.55ZM26.94,5.59,26.8,6.84,28,6.74l.23-1.25ZM4.86,7.36,4.72,8.61l1.22-.1.22-1.25Zm0,0L4.72,8.61l1.22-.1.22-1.25ZM26.94,5.59,26.8,6.84,28,6.74l.23-1.25ZM41.37,4.46,41,7l1.2-.09.38-2.55Zm10.55-.85-.36,2.55,1.3-.1.28-2.55Zm0,0-.36,2.55,1.3-.1.28-2.55Zm-10.55.85L41,7l1.2-.09.38-2.55ZM26.94,5.59,26.8,6.84,28,6.74l.23-1.25ZM4.86,7.36,4.72,8.61l1.22-.1.22-1.25Zm0,0L4.72,8.61l1.22-.1.22-1.25ZM26.94,5.59,26.8,6.84,28,6.74l.23-1.25ZM41.37,4.46,41,7l1.2-.09.38-2.55Zm10.55-.85-.36,2.55,1.3-.1.28-2.55Zm0,0-.36,2.55,1.3-.1.28-2.55Zm-10.55.85L41,7l1.2-.09.38-2.55ZM26.94,5.59,26.8,6.84,28,6.74l.23-1.25ZM4.86,7.36,4.72,8.61l1.22-.1.22-1.25Zm0,0L4.72,8.61l1.22-.1.22-1.25ZM26.94,5.59,26.8,6.84,28,6.74l.23-1.25ZM41.37,4.46,41,7l1.2-.09.38-2.55Zm10.55-.85-.36,2.55,1.3-.1.28-2.55Zm0,0-.36,2.55,1.3-.1.28-2.55Zm-10.55.85L41,7l1.2-.09.38-2.55ZM26.94,5.59,26.8,6.84,28,6.74l.23-1.25ZM4.86,7.36,4.72,8.61l1.22-.1.22-1.25Zm0,0L4.72,8.61l1.22-.1.22-1.25ZM26.94,5.59,26.8,6.84,28,6.74l.23-1.25ZM41.37,4.46,41,7l1.2-.09.38-2.55Zm10.55-.85-.36,2.55,1.3-.1.28-2.55Zm0,0-.36,2.55,1.3-.1.28-2.55Zm-10.55.85L41,7l1.2-.09.38-2.55ZM26.94,5.59,26.8,6.84,28,6.74l.23-1.25ZM4.86,7.36,4.72,8.61l1.22-.1.22-1.25Zm0,0L4.72,8.61l1.22-.1.22-1.25ZM26.94,5.59,26.8,6.84,28,6.74l.23-1.25ZM41.37,4.46,41,7l1.2-.09.38-2.55Zm10.55-.85-.36,2.55,1.3-.1.28-2.55Zm0,0-.36,2.55,1.3-.1.28-2.55Zm-10.55.85L41,7l1.2-.09.38-2.55ZM26.94,5.59,26.8,6.84,28,6.74l.23-1.25ZM4.86,7.36,4.72,8.61l1.22-.1.22-1.25Zm0,0L4.72,8.61l1.22-.1.22-1.25ZM26.94,5.59,26.8,6.84,28,6.74l.23-1.25ZM41.37,4.46,41,7l1.2-.09.38-2.55Zm10.55-.85-.36,2.55,1.3-.1.28-2.55Zm0,0-.36,2.55,1.3-.1.28-2.55Zm-10.55.85L41,7l1.2-.09.38-2.55ZM26.94,5.59,26.8,6.84,28,6.74l.23-1.25ZM4.86,7.36,4.72,8.61l1.22-.1.22-1.25Zm0,0L4.72,8.61l1.22-.1.22-1.25ZM26.94,5.59,26.8,6.84,28,6.74l.23-1.25ZM41.37,4.46,41,7l1.2-.09.38-2.55Zm0,0L41,7l1.2-.09.38-2.55ZM26.94,5.59,26.8,6.84,28,6.74l.23-1.25ZM4.86,7.36,4.72,8.61l1.22-.1.22-1.25Zm0,0L4.72,8.61l1.22-.1.22-1.25ZM26.94,5.59,26.8,6.84,28,6.74l.23-1.25Zm0,0L26.8,6.84,28,6.74l.23-1.25ZM4.86,7.36,4.72,8.61l1.22-.1.22-1.25ZM26.94,5.59,26.8,6.84,28,6.74l.23-1.25Zm0,0L26.8,6.84,28,6.74l.23-1.25Zm0,0L26.8,6.84,28,6.74l.23-1.25Zm0,0L26.8,6.84,28,6.74l.23-1.25Z"/><path class="l" d="M55.29,0,50.67.38l-.43.37h-.19L50.1.42,47.58.63,45.31.8l-.09.55-.48-.5L40,1.23,38.56,2.59,37.41,1.42l-.78.07-3.84.32L31.4,3.09,30.31,2,15,3.21l-.56,0L11,3.54,9.43,5,8.23,3.77l-6.44.52L0,16.65l1.91,1.93L8.7,18l1.56-1.46,1.2,1.23,6.44-.52.07-.54.5.49,4.76-.37.12-.72.64.65,6.79-.55L32.17,15l1.07,1.1,2.49-.19.14-.42c.15-.43.31-.87.46-1.28s.35-.85.51-1.25l.14-.35a4,4,0,0,0,.24-.68c.16-.38.26-.66.36-1l.13-.4.33-.35.07-.49L39,3.35,40.43,2l3.8-.3,1.06,1.15-.22,1.61-.49,3.47L43.14,9.25l-2.52.21-.07.52c.06,0,.09,0,.14.07l.49.33,0-.05.11-.05A2.23,2.23,0,0,1,42.46,10h.19l.2,0a2.25,2.25,0,0,1,1.3.75l.66-.58L45,10l1-6.75.24-1.73.9-.07,1.62-.14-1.29,8.83c.19.16.35.33.49.47l.42.47,1.19-8.63,1.51-1.33,3.72-.3L55.87,2l-1.25,8.89-2.5.19.36-2.55-1.28.1-.37,2.55-2.43.21a2.22,2.22,0,0,1,.17.47,2.1,2.1,0,0,1-.24,1.72.75.75,0,0,0-.07.12l.42,0h.19A2.36,2.36,0,0,1,50,14a1.91,1.91,0,0,1,.49.37s0,0,.07-.06a2.3,2.3,0,0,1,.95-.34h.11l.14,0a1.77,1.77,0,0,1,.41.05l.32-.22a2.7,2.7,0,0,1,1.63-.54h.21v0c.12-.52.33-1.09.5-1.63A14,14,0,0,1,55.43,10a6.26,6.26,0,0,1,.66-1.11l0-.12.33-.33a1.93,1.93,0,0,1,1.43-.61H58l.17,0,.21,0L59,3.82ZM8.44,8.3,7,9.72l1.07,1.15L7.69,13.4,6.27,14.74l-1.22.09.51-3.77-1.2.1-.59,3.77-2.5.21L2.73,5l5-.4L8.8,5.76Zm8-4.36L16.21,5.4l-.15,1.08-3.72.29L12.12,8l3.8-.29-.37,2.53-3.8.32-.14,1.23,3.72-.3L15,14l-5,.4L8.89,13.32,10,5.66l1.43-1.34L15,4l1.35-.11h.05Zm6.86,1.75,0,.21-1.84.16L21,9l-.66,4.57-2.5.21.9-6.22.2-1.35-1.69.14-.26,0,0-.25.26-1.85.07-.46,6.3-.5ZM30.15,9.1l-.34,2.29,0,.26L28.35,13l-1.22.1.26-1.89.26-1.89-1.21.1L26.2,11l-.35,2.21-2.5.19.43-3.08.66-4.56.37-2.48,5-.4L30.88,4l-.1.71-.26,1.84L29.08,8Zm6.9,1-.14.94L35.48,12.4l-3.73.29-1.06-1.13,0-.19,1-7,.07-.43,1.44-1.32,2.15-.18h0l1.54-.14L38,3.42Z"/><path class="m" d="M46.9,12.29a1.32,1.32,0,0,0-.21-.45s0,0,0-.05a1.14,1.14,0,0,0-.35-.3.31.31,0,0,0-.37,0l-.34.3-.47.41-1,1c-.34.35-.69.73-1,1.11a9.07,9.07,0,0,0-.83,1.1c.05-.16.1-.35.19-.59s.16-.51.23-.77.17-.52.24-.76.14-.44.19-.59a1.09,1.09,0,0,0,0-.44,1.07,1.07,0,0,0-.21-.36.54.54,0,0,0-.31-.19.47.47,0,0,0-.38.07,9.92,9.92,0,0,0-1.51,1.39c-.46.5-.91,1.06-1.34,1.61a6.29,6.29,0,0,1,.28-.73c.12-.28.24-.54.34-.8s.21-.47.3-.69a1.11,1.11,0,0,1,.09-.26c0-.09,0-.16,0-.21a.47.47,0,0,0-.17-.28,1.77,1.77,0,0,0-.35-.26,1.07,1.07,0,0,0-.36-.14.23.23,0,0,0-.24,0c-.11.33-.21.64-.33.95s-.2.54-.3.78c-.21.54-.42,1.1-.64,1.64-.16.38-.3.78-.44,1.18l-.17.48c-.19.58-.35,1.18-.5,1.83-.05.26-.11.53-.16.85a5.72,5.72,0,0,0-.07.9,2.44,2.44,0,0,0,.11.76.48.48,0,0,0,.39.37h.2s.08-.07.12-.15a7.43,7.43,0,0,1,.17-1.62,10.27,10.27,0,0,1,.49-1.58c.22-.5.47-1,.74-1.49l.37-.59a7.66,7.66,0,0,1,.54-.78,13.32,13.32,0,0,1,1-1.18,8.11,8.11,0,0,1,1.06-.92c-.1.28-.23.55-.35.87s-.22.62-.34.93-.23.65-.32,1c0,0,0,.05,0,.07a6.84,6.84,0,0,0-.23.86.58.58,0,0,0,.12.4.83.83,0,0,0,.28.28,1.11,1.11,0,0,0,.35.14.35.35,0,0,0,.29,0c.23-.34.49-.76.82-1.21l.41-.61c.19-.26.4-.5.59-.74a12,12,0,0,1,.8-.92,4,4,0,0,1,.28-.3s0,0,0,0a8.9,8.9,0,0,1,1-1c-.1.19-.24.47-.41.85a6.29,6.29,0,0,0-.26.58c-.09.22-.19.47-.28.73-.19.48-.35,1-.5,1.51a13.82,13.82,0,0,0-.32,1.52,4.48,4.48,0,0,0,0,1.27,1.19,1.19,0,0,0,.49.83.56.56,0,0,0,.26.11,1.2,1.2,0,0,0,.35,0H45a.11.11,0,0,0,.06-.09,10.45,10.45,0,0,1,0-1.94,9.26,9.26,0,0,1,.31-1.76,10.29,10.29,0,0,1,.45-1.32A2.05,2.05,0,0,1,46,14.5c.24-.58.52-1.22.85-1.9C46.93,12.55,47,12.45,46.9,12.29Z"/><path class="n" d="M54.4,16.85a1.14,1.14,0,0,0,0,.41.48.48,0,0,0,.22.33q.07.09,0,.15a.63.63,0,0,1-.22.07.93.93,0,0,1-.29,0,.29.29,0,0,1-.21-.09,1.18,1.18,0,0,1-.28-.51,1.4,1.4,0,0,1,0-.54,2.3,2.3,0,0,1,.14-.56,5,5,0,0,1,.26-.52,2.74,2.74,0,0,0-.79.67,6.84,6.84,0,0,0-.64.95c-.2.34-.4.7-.59,1.06s-.37.71-.56,1a.21.21,0,0,1-.22.08A.26.26,0,0,1,51,19.2a.39.39,0,0,1,0-.3c0-.19.07-.41.1-.65s0-.35.07-.52a4.32,4.32,0,0,1-.36.58,3.53,3.53,0,0,1-.55.61,2.73,2.73,0,0,1-.68.44.84.84,0,0,1-.42.09.89.89,0,0,1-.36-.11.81.81,0,0,1-.27-.25,1.11,1.11,0,0,1-.16-.35l-.22.2c-.09.08-.18.14-.27.21a2.22,2.22,0,0,1-.32.14.92.92,0,0,1-.37,0,.72.72,0,0,1-.27-.09,1.11,1.11,0,0,1-.24-.16.48.48,0,0,1-.15-.3,1.45,1.45,0,0,1,0-.32,6.21,6.21,0,0,1,.11-.67,5.64,5.64,0,0,1,.21-.7,3.89,3.89,0,0,1,.59-1,1.85,1.85,0,0,1,.93-.63,1.33,1.33,0,0,1,.4,0,.85.85,0,0,1,.37.11.69.69,0,0,1,.26.25.47.47,0,0,1,.07.35c0,.05,0,.1,0,.14a.32.32,0,0,1-.07.13s0,.06-.07.06,0,0-.08-.06a.62.62,0,0,1,0-.1.75.75,0,0,0-.07-.12A.31.31,0,0,0,49,16a.29.29,0,0,0-.17,0,.8.8,0,0,0-.49.32,4.62,4.62,0,0,0-.5.7,5.24,5.24,0,0,0-.39.79,3.69,3.69,0,0,0-.2.59c0,.21,0,.32,0,.32s.14,0,.25-.15a3.77,3.77,0,0,0,.38-.44c.13-.19.26-.37.38-.56l.32-.48.14-.22a.5.5,0,0,1,.3-.13.45.45,0,0,1,.28.09.55.55,0,0,1,.18.24.47.47,0,0,1,0,.31l-.19.47a1.73,1.73,0,0,0-.13.48c0,.2,0,.34.1.39s.21.05.4,0a1.62,1.62,0,0,0,.45-.38c.15-.17.3-.36.45-.55s.29-.39.41-.57a3.5,3.5,0,0,1,.31-.37s0-.07,0-.11c0-.26.07-.52.1-.76a.27.27,0,0,1,.1-.16.44.44,0,0,1,.19-.07.43.43,0,0,1,.2,0,.24.24,0,0,1,.12.14,1.34,1.34,0,0,1,0,.57c0,.23-.07.45-.12.67.13-.18.27-.4.42-.65a7.4,7.4,0,0,1,.51-.7,3.13,3.13,0,0,1,.61-.55,1.09,1.09,0,0,1,.69-.22.66.66,0,0,1,.32.17,1,1,0,0,1,.2.3,1,1,0,0,1,.09.33,1.4,1.4,0,0,1,0,.29l-.17.38A1.7,1.7,0,0,0,54.4,16.85Z"/><path class="o" d="M63.48,17.81c.05-.36.14-.78.24-1.23s.21-.92.31-1.39.25-.94.35-1.39l.33-1.21a0,0,0,0,1,0,0v0s0,0,0-.07h.07c.44-.09.91-.19,1.36-.3a11.88,11.88,0,0,0,1.42-.48,1.36,1.36,0,0,0,.31-.14s0,0-.05-.07h-.26a1.88,1.88,0,0,0-.33,0l-1.06.08-1.28.12a4.16,4.16,0,0,1,.15-.69,1.58,1.58,0,0,0,.13-.63c0-.07,0-.13-.13-.22a1.08,1.08,0,0,0-.29-.18,1.42,1.42,0,0,0-.31-.08c-.11,0-.18,0-.19.1s-.07.23-.11.37-.08.27-.14.43-.08.31-.12.49a3.59,3.59,0,0,0-.12.47l0,0a1,1,0,0,1-.37.07l-.61.05h-.62a2.57,2.57,0,0,0-.44,0,.75.75,0,0,0-.31.1.24.24,0,0,0-.1.19.37.37,0,0,0,.08.21.64.64,0,0,0,.3.14,3.73,3.73,0,0,0,.47,0h.5l.51,0,.48,0c-.09.32-.15.66-.22,1.05s-.16.76-.25,1.12-.15.84-.24,1.24a.07.07,0,0,0,0,.05,1.57,1.57,0,0,0-.15.19,2,2,0,0,0-.28.29l-.35.39c-.12.12-.24.24-.34.36l-.33.3c-.09.05-.19.12-.33.19a1.42,1.42,0,0,1-.42.15.56.56,0,0,1-.35-.05c-.08,0-.14-.17-.12-.38a.4.4,0,0,1,.11-.31,2.17,2.17,0,0,1,.27-.37l.35-.34.28-.28a1.47,1.47,0,0,0,.28-.4,2.17,2.17,0,0,0,.1-.47.58.58,0,0,0-.12-.45.75.75,0,0,0-.42-.23,1.53,1.53,0,0,0-.81.35,1.94,1.94,0,0,0-.56.71,3.4,3.4,0,0,0-.28.94,2.7,2.7,0,0,0,0,.94,1.55,1.55,0,0,0,0,.22.21.21,0,0,1-.07.12,6.08,6.08,0,0,1-.33.61l-.34.54-.32.42a.54.54,0,0,1-.2.17.25.25,0,0,1-.25-.19,2.29,2.29,0,0,1-.12-.54,5.58,5.58,0,0,1,0-.73c0-.26,0-.52-.07-.76a2.17,2.17,0,0,0-.14-.63.57.57,0,0,0-.29-.33,1.42,1.42,0,0,1,.24-.34c.14-.18.29-.35.47-.54s.33-.33.5-.49a1.16,1.16,0,0,1,.37-.24.13.13,0,0,0,.1-.07.24.24,0,0,0,0-.12l-.12-.11a.44.44,0,0,0-.2,0,.52.52,0,0,0-.33.14,3.37,3.37,0,0,0-.45.33c-.15.14-.31.29-.47.47a5,5,0,0,0-.45.48c-.15.18-.26.31-.36.45a2.82,2.82,0,0,0-.19.32,3.08,3.08,0,0,1,0-.47c0-.14.09-.3.14-.47a10.27,10.27,0,0,0,.64-1.29,4.36,4.36,0,0,0,.26-.6c.23-.59.42-1.13.56-1.6s.24-.85.31-1.2a4.91,4.91,0,0,1,.21-.75.42.42,0,0,0,0-.31.73.73,0,0,0-.16-.21l-.07,0a.62.62,0,0,0-.29-.12.34.34,0,0,0-.28.12.62.62,0,0,0-.08.12,5.21,5.21,0,0,0-.58.94,13.08,13.08,0,0,0-.57,1.37c-.17.49-.35,1-.49,1.53-.08.3-.15.59-.2.87s-.11.43-.16.66a10.85,10.85,0,0,0-.26,1.39,9.37,9.37,0,0,0-.12,1.12v.37a4.53,4.53,0,0,0,0,.52,3.19,3.19,0,0,0,.07.54,1.49,1.49,0,0,0,.14.45.89.89,0,0,0,.09.16.32.32,0,0,0,.12.08.13.13,0,0,0,.12,0,.23.23,0,0,0,.07-.17.13.13,0,0,0,0-.1.66.66,0,0,1,0-.13c0-.08,0-.26.07-.5s.11-.49.19-.75a5,5,0,0,1,.28-.74,1.08,1.08,0,0,1,.4-.49,2.08,2.08,0,0,1,0,.43c0,.2,0,.4,0,.63s0,.45,0,.68a4.11,4.11,0,0,0,.09.64,1.66,1.66,0,0,0,.19.52.47.47,0,0,0,.36.24.6.6,0,0,0,.49,0,1.65,1.65,0,0,0,.45-.31,2,2,0,0,0,.43-.51q.21-.29.39-.57c.1-.21.2-.4.29-.57a.07.07,0,0,0,0-.06.59.59,0,0,0,.24.23,1.33,1.33,0,0,0,.92.16,2,2,0,0,0,.58-.26,4.25,4.25,0,0,0,.53-.42,4.69,4.69,0,0,0,.47-.52q.24-.28.42-.54l0,0c0,.15-.07.29-.1.45s-.07.33-.11.55a6.15,6.15,0,0,0-.1.75,2.8,2.8,0,0,0,0,.71.72.72,0,0,0,.24.49.55.55,0,0,0,.45.15,1.89,1.89,0,0,0,.54-.12,1.72,1.72,0,0,0,.64-.38,3.59,3.59,0,0,0,.59-.63,8,8,0,0,0,.54-.76c.16-.28.31-.54.43-.8a6,6,0,0,0,.33-.69,3.82,3.82,0,0,0,.19-.45.5.5,0,0,0,.07-.25s0-.07,0-.07a.19.19,0,0,0-.12.06s-.07.05-.11.08a.73.73,0,0,0-.17.19,1,1,0,0,0-.12.19c0,.07-.14.21-.26.42s-.28.47-.45.73-.37.56-.56.83a6.71,6.71,0,0,1-.56.72,1.41,1.41,0,0,1-.48.39.19.19,0,0,1-.3-.12c0-.05-.07-.19,0-.45S63.41,18.19,63.48,17.81Zm-2.83-2.32a1.25,1.25,0,0,1,.48-.35,1.14,1.14,0,0,1-.26.5,4.63,4.63,0,0,1-.45.42A1.2,1.2,0,0,1,60.65,15.49Zm-3.86-1c0-.17.09-.36.14-.54.14-.43.28-.87.42-1.28s.29-.78.45-1.16.28-.7.42-1a3.85,3.85,0,0,1-.12.52l-.21.78c-.11.29-.19.61-.31.92s-.21.64-.33,1l-.3.78a.54.54,0,0,0-.05.11c-.12.29-.23.52-.33.71C56.64,15,56.71,14.74,56.79,14.46Z"/></svg>