<svg xmlns="http://www.w3.org/2000/svg" xmlns:xlink="http://www.w3.org/1999/xlink" viewBox="0 0 43.61 30.48"><defs><style>.a{fill:none;}.b{clip-path:url(#a);}.c{fill:#58276d;}.d{fill:#88236b;}.e{fill:#b51f66;}.f{fill:#49327c;}.g{fill:#635294;}.h{fill:#2d2c6d;}.i{fill:#9372b1;}.j{fill:#e04a7d;}.k{fill:#48bcd3;}.l{fill:#3192ba;}.m{fill:#b6d8f1;}.n{fill:#7f2958;}.o{fill:#662a54;}.p{fill:#6f61a9;}.q{fill:#bfaad2;}.r{fill:#d15b87;}.s{fill:#1b203a;}.t{fill:#ebd455;}.u{fill:#d62f62;}</style><clipPath id="a"><circle class="a" cx="21.67" cy="12.81" r="11.53"/></clipPath></defs><g class="b"><circle class="c" cx="21.67" cy="12.81" r="11.53"/><circle class="d" cx="18.3" cy="9.44" r="11.53"/><circle class="e" cx="18.98" cy="9.83" r="6.79"/></g><path class="e" d="M31.52,4.88a.09.09,0,0,1-.08,0l-.27-.32a.11.11,0,0,1,0-.14.1.1,0,0,1,.14,0l.28.32a.11.11,0,0,1,0,.15Z"/><path class="e" d="M30.53,3.79a.08.08,0,0,1-.07,0,12.9,12.9,0,0,0-2-1.59A12.54,12.54,0,0,0,19.18.45a.09.09,0,0,1-.11-.08.1.1,0,0,1,.07-.12A12.79,12.79,0,0,1,28.56,2a13.26,13.26,0,0,1,2,1.61.1.1,0,0,1,0,.14A.11.11,0,0,1,30.53,3.79Z"/><path class="f" d="M35.42,10.63a5.5,5.5,0,0,1-8.82,4.9A2.44,2.44,0,0,0,24.8,15l-5.47.61a2.51,2.51,0,0,0-1.65.9,5.5,5.5,0,1,1-4.84-9l16.5-1.84A5.5,5.5,0,0,1,35.42,10.63Z"/><path class="g" d="M34.87,10.62a4.67,4.67,0,0,1-4.42,5,5,5,0,0,1-3.52-.84,2.48,2.48,0,0,0-1.71-.43l-6.45.72a2.54,2.54,0,0,0-1.57.78,5.29,5.29,0,0,1-3.33,1.63A4.16,4.16,0,0,1,9,14c0-.14,0-.29-.07-.44A4.6,4.6,0,0,1,13.34,8.1L29,6.35a5.57,5.57,0,0,1,4,.83A4.82,4.82,0,0,1,34.87,10.62Z"/><path class="h" d="M29,6.35a5.57,5.57,0,0,1,4,.83,4.82,4.82,0,0,1,1.91,3.44,4.67,4.67,0,0,1-4.42,5,5,5,0,0,1-3.52-.84,2.48,2.48,0,0,0-1.71-.43l-6.45.72a2.54,2.54,0,0,0-1.57.78,5.29,5.29,0,0,1-3.33,1.63A4.16,4.16,0,0,1,9,14c0-.14,0-.29-.07-.44A4.6,4.6,0,0,1,13.34,8.1L29,6.35Zm0-.22L13.32,7.88a5,5,0,0,0-3.76,2,5.3,5.3,0,0,0-.81,3.65c0,.15,0,.31.07.46a4.68,4.68,0,0,0,1.65,2.86,4.62,4.62,0,0,0,3.43.86A5.5,5.5,0,0,0,17.37,16a2.33,2.33,0,0,1,1.42-.71l6.45-.72a2.35,2.35,0,0,1,1.57.39,5.19,5.19,0,0,0,3.66.88A5.41,5.41,0,0,0,34,14.09a4.55,4.55,0,0,0,1.09-3.49,5,5,0,0,0-2-3.6,5.83,5.83,0,0,0-4.15-.87Z"/><path class="i" d="M33,7.18C28.06,13.28,16.1,14.07,9,14c0-.14,0-.29-.07-.44A4.6,4.6,0,0,1,13.34,8.1L29,6.35A5.57,5.57,0,0,1,33,7.18Z"/><path class="j" d="M17.4,12.28a3.95,3.95,0,1,1-.86-2A4,4,0,0,1,17.4,12.28Z"/><path class="h" d="M13.94,16.78A4.07,4.07,0,0,1,10.09,15a4.23,4.23,0,0,1-.67-1.82,4.09,4.09,0,1,1,4.52,3.6ZM13.06,9a3.81,3.81,0,0,0-3.35,4.19,3.88,3.88,0,0,0,.62,1.69A3.79,3.79,0,1,0,13.06,9Z"/><path class="j" d="M33.89,10.44A4,4,0,1,1,33,8.36,4,4,0,0,1,33.89,10.44Z"/><path class="h" d="M30.37,15a4.16,4.16,0,0,1-3.91-1.82,4.22,4.22,0,0,1-.67-1.85,4.15,4.15,0,0,1,7.35-3.07A4.07,4.07,0,0,1,34,10.42,4.15,4.15,0,0,1,30.37,15Zm-.89-8a3.85,3.85,0,1,0,3.43,1.41A3.87,3.87,0,0,0,29.48,7.05Z"/><circle class="k" cx="29.82" cy="9.08" r="1.07"/><path class="l" d="M30,10.27A1.2,1.2,0,1,1,31,8.94,1.21,1.21,0,0,1,30,10.27Zm-.23-2.12a.93.93,0,0,0-.83,1,1,1,0,0,0,1,.83.94.94,0,0,0-.21-1.86Z"/><circle class="k" cx="30.25" cy="12.94" r="1.07"/><path class="l" d="M30.39,14.13a1.2,1.2,0,1,1-.27-2.38,1.2,1.2,0,0,1,.27,2.38ZM30.15,12a1,1,0,0,0-.83,1,.94.94,0,1,0,.83-1Z"/><circle class="k" cx="27.85" cy="11.2" r="1.07"/><path class="l" d="M28,12.39A1.2,1.2,0,1,1,29,11.07,1.19,1.19,0,0,1,28,12.39Zm-.24-2.12A.94.94,0,1,0,28,12.13a.94.94,0,0,0-.21-1.86Z"/><circle class="k" cx="32.05" cy="10.73" r="1.07"/><path class="l" d="M32.19,11.92a1.2,1.2,0,1,1-.27-2.38,1.2,1.2,0,0,1,.27,2.38ZM32,9.8a1,1,0,0,0-.83,1,.94.94,0,1,0,.83-1Z"/><circle class="m" cx="29.58" cy="8.8" r="0.47"/><circle class="m" cx="30.03" cy="12.74" r="0.47"/><circle class="m" cx="27.54" cy="10.99" r="0.47"/><circle class="m" cx="31.79" cy="10.52" r="0.47"/><rect class="n" x="19.49" y="13.81" width="1.89" height="0.68" rx="0.27" transform="translate(-1.45 2.36) rotate(-6.39)"/><path class="o" d="M21.1,14.51l-1.23.13a.4.4,0,0,1-.45-.36v0a.4.4,0,0,1,.36-.45L21,13.66a.42.42,0,0,1,.46.36v0A.42.42,0,0,1,21.1,14.51ZM19.8,14a.25.25,0,0,0-.22.27v0a.25.25,0,0,0,.27.22l1.23-.14a.25.25,0,0,0,.22-.27v0a.23.23,0,0,0-.27-.21Z"/><rect class="n" x="22.4" y="13.49" width="1.89" height="0.68" rx="0.27" transform="translate(-1.39 2.68) rotate(-6.39)"/><path class="o" d="M24,14.18l-1.23.14a.41.41,0,0,1-.45-.36v0a.41.41,0,0,1,.36-.46l1.22-.13a.41.41,0,0,1,.46.36v0A.41.41,0,0,1,24,14.18Zm-1.3-.54a.23.23,0,0,0-.22.27v0a.24.24,0,0,0,.27.21L24,14a.26.26,0,0,0,.22-.28v0a.24.24,0,0,0-.27-.22Z"/><circle class="p" cx="21.59" cy="11.07" r="1.42"/><path class="h" d="M21.76,12.64a1.58,1.58,0,1,1,1.4-1.74A1.57,1.57,0,0,1,21.76,12.64Zm-.31-2.81a1.25,1.25,0,1,0,1.38,1.1A1.25,1.25,0,0,0,21.45,9.83Z"/><circle class="n" cx="17.61" cy="8.61" r="0.52"/><path class="o" d="M17.68,9.21a.6.6,0,1,1,.53-.67A.61.61,0,0,1,17.68,9.21Zm-.12-1a.44.44,0,1,0,.49.39A.45.45,0,0,0,17.56,8.17Z"/><circle class="n" cx="19.27" cy="8.42" r="0.52"/><path class="o" d="M19.34,9a.62.62,0,0,1-.67-.54.6.6,0,1,1,.67.54Zm-.12-1a.44.44,0,0,0-.39.48.45.45,0,0,0,.49.39.44.44,0,1,0-.1-.87Z"/><circle class="n" cx="23.19" cy="7.99" r="0.52"/><path class="o" d="M23.26,8.59a.62.62,0,0,1-.67-.54.6.6,0,1,1,.67.54Zm-.12-1a.44.44,0,0,0-.39.48.44.44,0,0,0,.88-.09A.45.45,0,0,0,23.14,7.55Z"/><circle class="n" cx="24.85" cy="7.8" r="0.52"/><path class="o" d="M24.92,8.4a.61.61,0,0,1-.67-.53.6.6,0,1,1,1.2-.14A.61.61,0,0,1,24.92,8.4Zm-.12-1a.44.44,0,0,0,.1.88.45.45,0,0,0,.39-.49A.45.45,0,0,0,24.8,7.36Z"/><circle class="q" cx="21.19" cy="10.74" r="0.58"/><path class="n" d="M16.25,11.86,16.38,13a.39.39,0,0,1-.33.42l-1.17.13a.37.37,0,0,0-.33.41l.13,1.17a.38.38,0,0,1-.33.41l-1.1.12a.36.36,0,0,1-.41-.33l-.13-1.16a.37.37,0,0,0-.42-.33l-1.16.13a.39.39,0,0,1-.42-.33l-.12-1.1a.38.38,0,0,1,.33-.41L12.09,12a.39.39,0,0,0,.33-.42l-.13-1.16a.37.37,0,0,1,.33-.42l1.09-.12a.37.37,0,0,1,.42.33l.13,1.17a.38.38,0,0,0,.41.33l1.17-.13A.36.36,0,0,1,16.25,11.86Z"/><path class="o" d="M14.36,15.62l-1.09.12a.49.49,0,0,1-.56-.44l-.13-1.17a.24.24,0,0,0-.27-.21l-1.17.13a.51.51,0,0,1-.56-.45l-.12-1.09a.51.51,0,0,1,.45-.56l1.16-.13a.25.25,0,0,0,.22-.27l-.13-1.17a.51.51,0,0,1,.44-.56l1.1-.12a.51.51,0,0,1,.56.45l.13,1.16a.25.25,0,0,0,.27.22l1.16-.13a.51.51,0,0,1,.56.44l.13,1.1a.51.51,0,0,1-.45.56l-1.17.13a.23.23,0,0,0-.21.27l.13,1.16A.51.51,0,0,1,14.36,15.62Zm-3.42-3.41a.23.23,0,0,0-.22.27l.12,1.09a.25.25,0,0,0,.27.22l1.17-.13a.51.51,0,0,1,.56.44L13,15.27a.25.25,0,0,0,.27.22l1.09-.13a.24.24,0,0,0,.22-.27l-.13-1.16a.51.51,0,0,1,.45-.56L16,13.24a.26.26,0,0,0,.22-.27l-.13-1.1a.23.23,0,0,0-.27-.21l-1.16.13a.51.51,0,0,1-.56-.45L14,10.17a.24.24,0,0,0-.27-.21l-1.1.12a.24.24,0,0,0-.21.27l.13,1.17a.52.52,0,0,1-.45.56Z"/><path class="r" d="M13,11.65a.19.19,0,0,1-.21-.17l-.13-1.09a.19.19,0,0,1,.18-.21.18.18,0,0,1,.21.17l.12,1.09A.19.19,0,0,1,13,11.65Z"/><path class="r" d="M13.35,15.24a.2.2,0,0,1-.21-.17L13,14a.18.18,0,0,1,.17-.21.2.2,0,0,1,.21.17L13.52,15A.19.19,0,0,1,13.35,15.24Z"/><path class="r" d="M12.08,12.54,11,12.66a.19.19,0,0,1-.21-.17.19.19,0,0,1,.17-.21L12,12.16a.19.19,0,0,1,.22.17A.2.2,0,0,1,12.08,12.54Z"/><path class="r" d="M15.83,12.12l-1.08.12a.19.19,0,1,1,0-.38l1.07-.12a.2.2,0,0,1,.22.17A.2.2,0,0,1,15.83,12.12Z"/><polygon class="s" points="2.06 29.34 3.2 30.48 7.23 30.16 8.15 29.3 8.87 30.03 12.7 29.72 12.74 29.4 13.04 29.7 15.88 29.47 15.94 29.05 16.33 29.43 20.37 29.11 21.19 28.34 21.84 28.99 24.6 28.77 24.85 28.55 24.91 28.75 27.76 28.52 27.93 27.28 29.08 28.41 36.28 27.83 37.14 21.71 34.94 19.44 32.19 19.66 31.93 19.89 31.82 19.89 31.85 19.69 29.01 19.92 28.96 20.25 28.66 19.94 25.85 20.17 24.99 20.97 24.31 20.28 21.56 20.51 20.73 21.28 20.08 20.63 8.59 21.55 7.67 22.41 6.95 21.68 3.13 21.99 2.06 29.34"/><path class="t" d="M4.29,28.32l-1.48.12.87-6,3-.24.63.68-.21,1.51-.86.84.64.68-.23,1.51-.84.79-.73.06L5.37,26l-.72.06Zm.58-3.76.72-.06.13-.74L5,23.82Z"/><path class="t" d="M11.17,26.28,11,27.79,8,28l-.63-.67L8,22.8,8.84,22l3-.24-.21,1.52-2.21.17-.13.74L11.53,24l-.22,1.52-2.26.18L9,26.45Z"/><path class="t" d="M16.11,21.43,15.88,23,14.79,23l-.65,4.49-1.49.12.65-4.49-1.15.09.21-1.52Z"/><path class="t" d="M17.43,27.27l-1.49.12.87-6,3-.23.63.68-.21,1.51-.86.84.65.68-.23,1.51-.85.79-.72.06L18.5,25l-.72.06ZM18,23.5l.72-.05.14-.74-.77.06Z"/><path class="t" d="M20.31,26.32,21,21.76l.86-.79L24,20.8l.63.67L24,26l-.85.79L20.94,27Zm2.34-1,.44-3-.77.06-.44,3Z"/><path class="t" d="M26.22,25.06,26,26.58l-1.49.12.73-5.27.85-.8,2.27-.18.63.68-.43,3-.85.79Zm.94-1.52L27.38,22l-.72.06-.22,1.51Z"/><path class="t" d="M30.17,26.25l-1.48.12.87-6,1.49-.12Z"/><path class="t" d="M30.8,26.2l.73-5.28.91-.8L34.65,20l.63.67-.74,5.28L33.05,26l.22-1.52-.77.06-.22,1.52Zm2.86-4.67-.72.06-.22,1.51.77-.06Z"/><path class="t" d="M1.68,21.56a.1.1,0,0,1-.1-.09.1.1,0,0,1,.09-.11l7.2-.58a.12.12,0,0,1,.11.09.11.11,0,0,1-.1.11l-7.19.58Z"/><path class="t" d="M34.27,20.43a.1.1,0,0,1-.1-.09.1.1,0,0,1,.09-.11l7.2-.58s.1,0,.11.09a.1.1,0,0,1-.09.11l-7.2.58Z"/><path class="s" d="M35.65,22.05a.11.11,0,0,1-.1-.09.1.1,0,0,1,.1-.11l4-.33a.1.1,0,0,1,.11.1.09.09,0,0,1-.09.1l-4,.33Z"/><path class="s" d="M22.88,22.15a.1.1,0,0,1-.1-.1.09.09,0,0,1,.09-.1l4-.33a.12.12,0,0,1,.11.09.1.1,0,0,1-.1.11l-4,.33Z"/><path class="s" d="M.1,26.47a.1.1,0,0,1-.1-.09.1.1,0,0,1,.09-.11l4-.32a.1.1,0,0,1,.11.09.12.12,0,0,1-.09.11l-4,.32Z"/><path class="e" d="M31.6,17.54a.1.1,0,0,1-.1-.09.1.1,0,0,1,.09-.11l6.59-.53a.09.09,0,0,1,.11.09.09.09,0,0,1-.09.11l-6.59.53Z"/><path class="e" d="M30.49,17.63a.11.11,0,0,1-.1-.09.1.1,0,0,1,.1-.11l.46,0a.11.11,0,0,1,.11.09.1.1,0,0,1-.09.11l-.47,0Z"/><path class="e" d="M15.81,28.36a.11.11,0,0,1-.1-.09.12.12,0,0,1,.1-.11l.46,0a.09.09,0,0,1,.11.09.12.12,0,0,1-.09.11l-.47,0Z"/><path class="e" d="M16.78,28.29a.1.1,0,0,1-.1-.1.09.09,0,0,1,.09-.1l4.64-.38a.12.12,0,0,1,.11.09.1.1,0,0,1-.09.11l-4.64.38Z"/><path class="u" d="M27.36,27.3c0-.18.08-.36.14-.55s.12-.39.19-.58l.21-.56.2-.51a4.42,4.42,0,0,0-.63.55,6.75,6.75,0,0,0-.6.69,7.81,7.81,0,0,0-.55.82,7.29,7.29,0,0,0-.43.89,5.4,5.4,0,0,0-.3.94,4.47,4.47,0,0,0-.1,1c0,.05,0,.08-.08.09H25.3a.3.3,0,0,1-.23-.23,1.18,1.18,0,0,1-.07-.45,3.5,3.5,0,0,1,.05-.54c0-.19.06-.35.09-.5q.13-.59.3-1.08l.36-1c.13-.32.26-.64.38-1s.26-.67.37-1a.17.17,0,0,1,.15,0l.22.09a1,1,0,0,1,.2.15.28.28,0,0,1,.1.17.7.7,0,0,1-.06.28l-.17.42-.21.46c-.07.16-.12.31-.17.44.27-.33.53-.65.8-1a5.73,5.73,0,0,1,.89-.82.29.29,0,0,1,.23-.05.35.35,0,0,1,.19.12.52.52,0,0,1,.12.22.43.43,0,0,1,0,.25l-.12.35c0,.15-.09.3-.14.45s-.1.31-.14.46-.08.26-.11.35a6,6,0,0,1,.5-.65c.2-.23.4-.45.62-.66s.41-.41.6-.59.36-.33.49-.43a.17.17,0,0,1,.22,0,.82.82,0,0,1,.22.2.84.84,0,0,1,.13.27c0,.1,0,.16,0,.19-.2.41-.37.78-.51,1.13a6.9,6.9,0,0,0-.36,1A5.25,5.25,0,0,0,30,28.12a7.47,7.47,0,0,0,0,1.16.05.05,0,0,1,0,0h-.06a.62.62,0,0,1-.2,0,.34.34,0,0,1-.15-.06.74.74,0,0,1-.29-.49,2.48,2.48,0,0,1,0-.77,6.93,6.93,0,0,1,.19-.9c.09-.31.18-.61.29-.9s.22-.54.32-.77.19-.4.25-.51a5.23,5.23,0,0,0-.63.57c-.22.24-.44.48-.65.75s-.42.53-.61.8-.35.52-.48.73a.24.24,0,0,1-.17,0,.6.6,0,0,1-.21-.08.52.52,0,0,1-.17-.16A.41.41,0,0,1,27.36,27.3Z"/><path class="u" d="M35.58,27.45a.65.65,0,0,0,0,.24.27.27,0,0,0,.13.2s0,.06,0,.09a.4.4,0,0,1-.13,0,1,1,0,0,1-.17,0,.23.23,0,0,1-.13-.06.74.74,0,0,1-.16-.3.92.92,0,0,1,0-.33,1.35,1.35,0,0,1,.09-.33,2.2,2.2,0,0,1,.15-.31,1.76,1.76,0,0,0-.47.4,6.08,6.08,0,0,0-.38.56c-.12.21-.24.42-.35.64s-.22.42-.33.61a.15.15,0,0,1-.14.05.16.16,0,0,1-.1-.11.25.25,0,0,1,0-.17q0-.18.06-.39a2.91,2.91,0,0,0,0-.31,2.5,2.5,0,0,1-.21.35,2.82,2.82,0,0,1-.33.36,1.72,1.72,0,0,1-.4.26.69.69,0,0,1-.26.06.58.58,0,0,1-.21-.07.57.57,0,0,1-.16-.15.68.68,0,0,1-.1-.21l-.13.12a.61.61,0,0,1-.16.12.66.66,0,0,1-.19.09.5.5,0,0,1-.21,0,.34.34,0,0,1-.17-.05.61.61,0,0,1-.14-.1.24.24,0,0,1-.09-.17.5.5,0,0,1,0-.2,3.1,3.1,0,0,1,.06-.39c0-.14.08-.28.13-.42a2.06,2.06,0,0,1,.35-.61,1,1,0,0,1,.55-.37.5.5,0,0,1,.24,0,.4.4,0,0,1,.22.06.46.46,0,0,1,.16.15.3.3,0,0,1,0,.21.31.31,0,0,1,0,.08.2.2,0,0,1,0,.08.05.05,0,0,1,0,0s0,0-.05,0l0-.06a.3.3,0,0,0,0-.08s0,0-.06-.06a.2.2,0,0,0-.11,0,.47.47,0,0,0-.29.19,3.44,3.44,0,0,0-.29.42,2.61,2.61,0,0,0-.24.47,1.64,1.64,0,0,0-.11.35c0,.12,0,.19,0,.19a.31.31,0,0,0,.15-.09,1.56,1.56,0,0,0,.22-.26l.23-.33c.07-.11.14-.2.19-.29a1.08,1.08,0,0,0,.08-.13.29.29,0,0,1,.18-.08.25.25,0,0,1,.17.06.24.24,0,0,1,.1.14.28.28,0,0,1,0,.18c0,.08-.06.17-.11.28a.93.93,0,0,0-.08.28q0,.2.06.24s.12,0,.23,0A1.1,1.1,0,0,0,33,28.3q.13-.15.27-.33l.25-.34a2.7,2.7,0,0,1,.18-.22.13.13,0,0,1,0-.06,3.06,3.06,0,0,1,.06-.45.12.12,0,0,1,.06-.1.21.21,0,0,1,.11,0,.25.25,0,0,1,.12,0,.27.27,0,0,1,.07.08,1,1,0,0,1,0,.34c0,.14,0,.27-.08.4.08-.11.16-.24.25-.38a4.56,4.56,0,0,1,.31-.42,1.86,1.86,0,0,1,.36-.33.69.69,0,0,1,.41-.13.39.39,0,0,1,.19.1.57.57,0,0,1,.12.18.73.73,0,0,1,.05.2.48.48,0,0,1,0,.17l-.1.23A1.17,1.17,0,0,0,35.58,27.45Z"/><path class="u" d="M43.58,24.24h-.35l-.63.05-.77.08a3.26,3.26,0,0,1,.1-.42,1.16,1.16,0,0,0,.07-.37.17.17,0,0,0-.07-.13.54.54,0,0,0-.18-.11.67.67,0,0,0-.19-.05c-.06,0-.1,0-.11.06l-.07.22c0,.08,0,.17-.07.26s-.05.19-.08.29,0,.18-.07.27,0,0,0,0a.78.78,0,0,1-.21,0l-.36,0h-.64a.29.29,0,0,0-.19.06.14.14,0,0,0-.06.11.18.18,0,0,0,.06.13.38.38,0,0,0,.18.08l.27,0c.1,0,.2,0,.3,0l.3,0h.29c0,.18-.09.39-.13.62s-.09.45-.15.67-.09.49-.14.73l0,0-.09.12-.17.17c-.06.08-.13.15-.2.23l-.21.22a1.37,1.37,0,0,1-.19.17l-.2.12a1.06,1.06,0,0,1-.25.09.32.32,0,0,1-.2,0c-.06,0-.08-.11-.08-.23a.32.32,0,0,1,.07-.18,1.12,1.12,0,0,1,.16-.22l.21-.21.16-.16a.85.85,0,0,0,.17-.25.9.9,0,0,0,.06-.27.35.35,0,0,0-.07-.27.36.36,0,0,0-.24-.13.93.93,0,0,0-.5.2,1.38,1.38,0,0,0-.32.43,2.07,2.07,0,0,0-.17.55,1.57,1.57,0,0,0,0,.57s0,.09,0,.13a.25.25,0,0,1,0,.07c-.06.12-.13.24-.2.36a3,3,0,0,1-.21.32,1.8,1.8,0,0,1-.18.25.31.31,0,0,1-.12.1c-.07,0-.12,0-.15-.11a1.94,1.94,0,0,1-.07-.32,3,3,0,0,1,0-.44c0-.16,0-.3,0-.45a1.67,1.67,0,0,0-.09-.37.29.29,0,0,0-.17-.2.83.83,0,0,1,.15-.21l.27-.31a4,4,0,0,1,.3-.29,1.06,1.06,0,0,1,.22-.15.06.06,0,0,0,.06,0,.13.13,0,0,0,0-.07l-.07-.06a.24.24,0,0,0-.12,0,.43.43,0,0,0-.2.08l-.26.21a3.5,3.5,0,0,0-.28.27,3.65,3.65,0,0,0-.27.3,1.5,1.5,0,0,0-.21.26,1.36,1.36,0,0,0-.12.18l0-.28a2.13,2.13,0,0,1,.09-.27,8.61,8.61,0,0,0,.53-1.13c.14-.35.25-.67.33-.94s.15-.52.19-.71a4.38,4.38,0,0,1,.12-.45.21.21,0,0,0,0-.19.37.37,0,0,0-.13-.15.29.29,0,0,0-.18-.07.17.17,0,0,0-.16.06,3.19,3.19,0,0,0-.39.64c-.12.25-.24.52-.35.81s-.2.6-.28.91-.16.61-.23.91-.11.57-.15.83-.06.48-.07.66v.23c0,.09,0,.2,0,.31s0,.21,0,.32a1.34,1.34,0,0,0,.08.26l.06.09a.13.13,0,0,0,.07.06.06.06,0,0,0,.07,0s0,0,0-.1a.13.13,0,0,0,0-.06V29s0-.15,0-.3a2.93,2.93,0,0,1,.11-.45,2.35,2.35,0,0,1,.17-.44.64.64,0,0,1,.23-.29,1.61,1.61,0,0,1,0,.26c0,.11,0,.24,0,.37s0,.27,0,.4,0,.27.05.39a1,1,0,0,0,.12.3.3.3,0,0,0,.22.16.39.39,0,0,0,.28,0,1.1,1.1,0,0,0,.28-.18,1.53,1.53,0,0,0,.25-.3,3.37,3.37,0,0,0,.22-.35,3.79,3.79,0,0,0,.18-.34l0,0a.35.35,0,0,0,.14.13.73.73,0,0,0,.54.09,1.19,1.19,0,0,0,.35-.15A2.42,2.42,0,0,0,40,28c.1-.1.2-.2.29-.31s.17-.22.24-.32l0,0-.06.28c0,.08,0,.19-.07.33s0,.29,0,.44a1.91,1.91,0,0,0,0,.42.47.47,0,0,0,.14.3.34.34,0,0,0,.27.09,2.14,2.14,0,0,0,.32-.08.92.92,0,0,0,.38-.22,4.43,4.43,0,0,0,.36-.38,3.58,3.58,0,0,0,.31-.45c.1-.17.19-.32.27-.47s.14-.29.19-.41l.12-.27a.85.85,0,0,0,0-.15s0,0,0,0l-.07,0-.06.05-.11.11a.75.75,0,0,0-.07.12,2.21,2.21,0,0,0-.15.25l-.27.43c-.11.16-.21.33-.33.49a4.34,4.34,0,0,1-.33.43,1.1,1.1,0,0,1-.29.24.12.12,0,0,1-.18-.07s0-.12,0-.27,0-.33.08-.55.09-.46.15-.74.12-.54.19-.82l.21-.83c.06-.26.13-.5.19-.72a0,0,0,0,1,0,0v0s0,0,0,0l0,0c.26,0,.53-.1.81-.17a6.58,6.58,0,0,0,.85-.29.51.51,0,0,0,.18-.08S43.61,24.25,43.58,24.24ZM39.3,26.63a.79.79,0,0,1,.28-.21.71.71,0,0,1-.16.31,2.09,2.09,0,0,1-.26.25A.7.7,0,0,1,39.3,26.63Zm-2.22-.92c.08-.27.17-.52.26-.76s.17-.48.26-.7l.25-.59c0,.07,0,.18-.07.31l-.13.47c-.06.17-.11.35-.18.55s-.13.38-.2.57-.14.36-.21.53a4.5,4.5,0,0,1-.19.42C36.93,26.24,37,26,37.08,25.71Z"/></svg>