<svg xmlns="http://www.w3.org/2000/svg" viewBox="0 0 212.27 209.07"><defs><style>.a{fill:none;}</style></defs><path class="a" d="M116.41,90.9c0-4.4,1.42-8,3.18-8s3.19,3.56,3.19,8-1.43,7.95-3.19,7.95S116.41,95.29,116.41,90.9Z"/><path class="a" d="M88.57,82.94c-1.76,0-3.18,3.56-3.18,8s1.42,7.95,3.18,7.95,3.18-3.56,3.18-7.95S90.33,82.94,88.57,82.94Zm0,0c-1.76,0-3.18,3.56-3.18,8s1.42,7.95,3.18,7.95,3.18-3.56,3.18-7.95S90.33,82.94,88.57,82.94Zm106.26-5.17c-12-2.66-37.44-6.88-54.11-9.55C134.5,55,121.29,26.84,115.08,12.43,111.34,3.77,108.83,0,106.34,0c-3,0-6.06,5.59-11.23,14.69C88.66,26,76,51.54,68.7,66.48,52,68.32,29,71,17.78,72.92-1,76.13-6.39,76.59,8.86,90.93c9.79,9.21,27.33,26.69,38.62,38-3.13,16.29-8.44,44.55-10.13,57.59-1.62,12.5-2.67,19.05,2.07,19.05,2.42,0,6.36-1.72,12.52-5.23,12.62-7.19,37.11-20.19,50.93-27.48,13.29,7.86,37.75,22.42,50.22,30.36,6.18,3.93,10.09,5.84,12.49,5.84,4.47,0,3.75-6.58,2.76-18.93-1-12.81-4.79-40.27-7.14-56.85C173,122.61,192.26,105.2,202.85,96.2,218.78,82.64,213.44,81.92,194.83,77.77ZM88.57,123.42c-4.06,0-7.35-10.27-7.35-22.93s3.29-22.93,7.35-22.93,7.34,10.26,7.34,22.93S92.62,123.42,88.57,123.42Zm31,0c-4.06,0-7.35-10.27-7.35-22.93s3.29-22.93,7.35-22.93,7.35,10.26,7.35,22.93S123.65,123.42,119.59,123.42Zm-31-40.48c-1.76,0-3.18,3.56-3.18,8s1.42,7.95,3.18,7.95,3.18-3.56,3.18-7.95S90.33,82.94,88.57,82.94Z"/><path class="a" d="M91.75,90.9c0,4.39-1.42,7.95-3.18,7.95s-3.18-3.56-3.18-7.95,1.42-8,3.18-8S91.75,86.5,91.75,90.9Z"/><path class="a" d="M122.78,90.9c0,4.39-1.43,7.95-3.19,7.95s-3.18-3.56-3.18-7.95,1.42-8,3.18-8S122.78,86.5,122.78,90.9Z"/></svg>